<svg xmlns="http://www.w3.org/2000/svg" width="221.072" height="61.653" viewBox="0 0 221.072 61.653">
  <g id="Group_1" data-name="Group 1" transform="translate(-4440)">
    <g id="Group_591" data-name="Group 591" transform="translate(4508.192 9.06)">
      <path id="Path_8" data-name="Path 8" d="M272.605,63.463H269V41.277h7.332a27.142,27.142,0,0,1,3.064.128,6.894,6.894,0,0,1,4.318,2.066,6.458,6.458,0,0,1,1.606,4.6,7.272,7.272,0,0,1-.469,2.654,5.778,5.778,0,0,1-1.281,2.019,6.64,6.64,0,0,1-1.872,1.331,7.5,7.5,0,0,1-2.3.666,27.969,27.969,0,0,1-3.064.125h-3.727Zm0-19.412v7.765h3.852a14.628,14.628,0,0,0,2.26-.139,3.4,3.4,0,0,0,2.038-1.154,3.911,3.911,0,0,0,.774-2.593,3.939,3.939,0,0,0-.774-2.6,3.383,3.383,0,0,0-2.038-1.162,15.761,15.761,0,0,0-2.26-.122Zm14.526,14.961q0-5.811,9.434-5.81h1v-.435q0-1.256-.067-1.922-.158-2.4-3.034-2.4-3.062,0-3.369,3.367h-3.588a5.862,5.862,0,0,1,2.083-4.423,9,9,0,0,1,9.714-.324,5.067,5.067,0,0,1,1.772,3.619q.1,1.094.094,2.482v5.982a32.629,32.629,0,0,0,.316,4.312H298l-.311-2.465-.874,1.828a7.312,7.312,0,0,1-4.215,1.093,5.891,5.891,0,0,1-3.916-1.3,4.439,4.439,0,0,1-1.553-3.6Zm3.544-.288a2.418,2.418,0,0,0,.815,1.991,3.49,3.49,0,0,0,2.266.663,3.572,3.572,0,0,0,2.757-1.134,4.509,4.509,0,0,0,1.054-3.178V55.484c-.527-.042-1.029-.061-1.5-.061a12.194,12.194,0,0,0-2.146.172,4.639,4.639,0,0,0-2.379,1.062,2.66,2.66,0,0,0-.862,2.066ZM310.49,64.25,303.57,46.269h3.979l4.723,14.52,4.695-14.52h3.855l-7,18.281a11.09,11.09,0,0,1-2.687,4.379A5.62,5.62,0,0,1,307.3,70.24a10.5,10.5,0,0,1-1.692-.094V67.52c.283.022.663.033,1.137.033a3.407,3.407,0,0,0,2.085-.618,4.573,4.573,0,0,0,1.406-2.069Zm25.788-.788L328.443,41h3.86l6.359,19.731L345.165,41h3.813l-8.073,22.463Zm12.213-8.5a9.243,9.243,0,0,1,2.346-6.572,7.93,7.93,0,0,1,6.073-2.51,7.464,7.464,0,0,1,4.182,1.154,7.041,7.041,0,0,1,2.621,3.073,10.614,10.614,0,0,1,.86,4.382c0,.538-.022,1.012-.061,1.486H352.187c.252,3.58,1.753,5.4,4.5,5.4a3.9,3.9,0,0,0,4.046-3.461h3.583a6.783,6.783,0,0,1-2.665,4.515,8.487,8.487,0,0,1-5.1,1.539,7.732,7.732,0,0,1-5.832-2.307q-2.23-2.309-2.227-6.7Zm3.73-1.484h8.7a6.456,6.456,0,0,0-1.242-3.674,3.56,3.56,0,0,0-2.9-1.27,4.091,4.091,0,0,0-3.073,1.253,6.227,6.227,0,0,0-1.489,3.691Zm19.387,9.983H368V46.269h3.605v2.845l1.148-1.977a5.816,5.816,0,0,1,1.972-1.043,8.569,8.569,0,0,1,2.352-.286,6.472,6.472,0,0,1,4.273,1.312,5.167,5.167,0,0,1,1.808,3.608c.061.876.094,1.891.094,3.051v9.684H379.65v-9.29c0-1.032-.022-1.839-.064-2.415a3.707,3.707,0,0,0-.993-2.424,3.49,3.49,0,0,0-2.587-.882,3.7,3.7,0,0,0-3.189,1.758q-1.206,1.751-1.206,5.557v7.7ZM387.415,56.5V46.269h3.328v9.512a21.928,21.928,0,0,0,.128,2.354,3.477,3.477,0,0,0,1.156,2.282,3.84,3.84,0,0,0,2.6.832,3.778,3.778,0,0,0,3.236-1.667,9.049,9.049,0,0,0,1.2-5.225V46.269h3.605V63.463h-3.605v-2.94l-1.179,2.133a6.564,6.564,0,0,1-1.988.982,8.478,8.478,0,0,1-2.335.288,6.4,6.4,0,0,1-4.1-1.251,4.945,4.945,0,0,1-1.883-3.131,22.549,22.549,0,0,1-.158-3.039ZM405.8,54.963a9.243,9.243,0,0,1,2.346-6.572,7.938,7.938,0,0,1,6.073-2.51,7.467,7.467,0,0,1,4.179,1.154,7.017,7.017,0,0,1,2.626,3.073,10.615,10.615,0,0,1,.86,4.382c0,.538-.019,1.012-.061,1.486H409.495c.252,3.58,1.753,5.4,4.5,5.4a4.058,4.058,0,0,0,2.679-.912,4.01,4.01,0,0,0,1.367-2.549h3.583a6.768,6.768,0,0,1-2.671,4.515,8.476,8.476,0,0,1-5.1,1.539,7.734,7.734,0,0,1-5.829-2.307q-2.23-2.309-2.227-6.7Zm3.73-1.484h8.705a6.455,6.455,0,0,0-1.242-3.674,3.556,3.556,0,0,0-2.9-1.27,4.091,4.091,0,0,0-3.073,1.253,6.227,6.227,0,0,0-1.489,3.691Zm0-.064" transform="translate(-269 -41)" fill="#ffb53f"/>
      <path id="Path_9" data-name="Path 9" d="M339.529,171.875a.646.646,0,0,1-.482-.2.658.658,0,0,1-.2-.485v-9.348a.685.685,0,0,1,.2-.491.643.643,0,0,1,.482-.205.683.683,0,0,1,.5.205.67.67,0,0,1,.205.491V171.2a.654.654,0,0,1-.205.485.7.7,0,0,1-.5.194Zm5.865.078q-2.213,0-2.213-2v-4.7h-1.076a.287.287,0,0,1-.205-.086.28.28,0,0,1-.083-.205.319.319,0,0,1,.136-.258l2.066-2.016a.383.383,0,0,1,.258-.136.259.259,0,0,1,.2.089.3.3,0,0,1,.086.214v1.212h1.711a.556.556,0,0,1,.422.169.566.566,0,0,1,.169.422.574.574,0,0,1-.169.416.543.543,0,0,1-.422.177h-1.711v4.576c0,.394.091.643.277.749a1.4,1.4,0,0,0,.7.161,2.191,2.191,0,0,0,.607-.089l.13-.033a.968.968,0,0,1,.172-.011.538.538,0,0,1,.38.158.518.518,0,0,1,.164.385.574.574,0,0,1-.347.53,2.935,2.935,0,0,1-1.256.275Zm3.608-7.6a.407.407,0,0,1-.286-.108.447.447,0,0,1-.153-.275c-.083-.416-.158-.876-.23-1.384a9.714,9.714,0,0,1-.105-1.342.715.715,0,0,1,.227-.538.754.754,0,0,1,.546-.222.743.743,0,0,1,.544.222.713.713,0,0,1,.23.538,10.128,10.128,0,0,1-.105,1.342c-.072.507-.15.971-.23,1.384a.455.455,0,0,1-.153.275.4.4,0,0,1-.286.108Zm5.377,7.6a5.655,5.655,0,0,1-2.757-.679.617.617,0,0,1-.089-.926.538.538,0,0,1,.422-.183.639.639,0,0,1,.275.061,6.012,6.012,0,0,0,.971.336,4.508,4.508,0,0,0,1.09.119q1.685,0,1.683-1.073a.575.575,0,0,0-.385-.532,8.338,8.338,0,0,0-1.265-.41,11.575,11.575,0,0,1-1.478-.438,2.576,2.576,0,0,1-1-.693,1.739,1.739,0,0,1-.416-1.217,2.183,2.183,0,0,1,.765-1.728,3.221,3.221,0,0,1,2.188-.668,6.28,6.28,0,0,1,2.2.383.553.553,0,0,1,.324.225.6.6,0,0,1-.058.774.588.588,0,0,1-.435.18.925.925,0,0,1-.2-.031,5.8,5.8,0,0,0-1.73-.275,2.383,2.383,0,0,0-1.278.294.883.883,0,0,0-.463.765.705.705,0,0,0,.422.668,6.182,6.182,0,0,0,1.317.41,11.722,11.722,0,0,1,1.453.447,2.415,2.415,0,0,1,.962.688,1.871,1.871,0,0,1,.4,1.259,2.015,2.015,0,0,1-.765,1.611,3.266,3.266,0,0,1-2.158.635Zm12.169,0a3.865,3.865,0,0,1-2.884-1.054,4.033,4.033,0,0,1-1.04-2.962,4.918,4.918,0,0,1,.394-1.986,3.389,3.389,0,0,1,1.212-1.47,3.479,3.479,0,0,1,2.016-.56,3.523,3.523,0,0,1,1.941.524,3.341,3.341,0,0,1,1.24,1.392,4.286,4.286,0,0,1,.424,1.9.69.69,0,0,1-.186.488.675.675,0,0,1-.508.2h-5.136a2.476,2.476,0,0,0,.788,1.65,2.709,2.709,0,0,0,1.864.593,4.475,4.475,0,0,0,1.115-.125,4.94,4.94,0,0,0,.935-.347.577.577,0,0,1,.272-.061.6.6,0,0,1,.424.169.545.545,0,0,1,.18.422.651.651,0,0,1-.394.56,5.321,5.321,0,0,1-1.167.5,5.394,5.394,0,0,1-1.489.169Zm-2.526-4.651h4.468a2.429,2.429,0,0,0-.385-1.242,2.137,2.137,0,0,0-.843-.738,2.322,2.322,0,0,0-2.027,0,2.027,2.027,0,0,0-.835.738,2.472,2.472,0,0,0-.377,1.242Zm9.623,4.651a2.794,2.794,0,0,1-1.234-.275,2.157,2.157,0,0,1-.907-.8,2.186,2.186,0,0,1-.333-1.2,2.122,2.122,0,0,1,.885-1.789,4.316,4.316,0,0,1,2.6-.663h1.833V167.1a1.83,1.83,0,0,0-.494-1.436,2.254,2.254,0,0,0-1.536-.441,5.344,5.344,0,0,0-1.023.089,8.978,8.978,0,0,0-.99.275.924.924,0,0,1-.2.031.551.551,0,0,1-.4-.164.565.565,0,0,1-.164-.41.585.585,0,0,1,.394-.577,6.655,6.655,0,0,1,2.621-.544,3.409,3.409,0,0,1,1.767.427,2.616,2.616,0,0,1,1.059,1.1,3.176,3.176,0,0,1,.341,1.461V171.2a.654.654,0,0,1-.205.485.685.685,0,0,1-.491.2.646.646,0,0,1-.483-.2.659.659,0,0,1-.2-.485V170.8a3.82,3.82,0,0,1-2.851,1.148Zm.516-1.212a2.714,2.714,0,0,0,1.287-.327,3.608,3.608,0,0,0,1.048-.807v-1.273h-1.653q-2.288,0-2.285,1.2a1.135,1.135,0,0,0,.369.879,1.827,1.827,0,0,0,1.234.33Zm8.53,1.212a5.655,5.655,0,0,1-2.757-.679.586.586,0,0,1-.258-.5.61.61,0,0,1,.164-.421.548.548,0,0,1,.424-.183.676.676,0,0,1,.275.061,6.145,6.145,0,0,0,.965.336,4.571,4.571,0,0,0,1.1.119q1.676,0,1.678-1.073a.575.575,0,0,0-.385-.532,8.185,8.185,0,0,0-1.267-.41,11.858,11.858,0,0,1-1.478-.438,2.587,2.587,0,0,1-1-.693,1.74,1.74,0,0,1-.419-1.217,2.183,2.183,0,0,1,.765-1.728,3.229,3.229,0,0,1,2.191-.668,6.242,6.242,0,0,1,2.2.383.559.559,0,0,1,.327.225.6.6,0,0,1,.114.347.607.607,0,0,1-.175.427.571.571,0,0,1-.43.18.877.877,0,0,1-.2-.031,5.8,5.8,0,0,0-1.73-.275,2.394,2.394,0,0,0-1.281.294.883.883,0,0,0-.463.765.7.7,0,0,0,.427.668,6.182,6.182,0,0,0,1.317.41,12.264,12.264,0,0,1,1.456.447,2.435,2.435,0,0,1,.962.688,1.87,1.87,0,0,1,.4,1.259,2.015,2.015,0,0,1-.765,1.611,3.269,3.269,0,0,1-2.155.635Zm6.445,3.414a.611.611,0,0,1-.463-.2.643.643,0,0,1-.191-.466.665.665,0,0,1,.05-.247l.984-2.526-2.851-6.941a.808.808,0,0,1-.058-.288.693.693,0,0,1,.2-.5.649.649,0,0,1,.483-.2.66.66,0,0,1,.385.119.688.688,0,0,1,.25.3l2.335,5.79,2.379-5.763a.661.661,0,0,1,.638-.449.648.648,0,0,1,.482.2.693.693,0,0,1,.2.5.812.812,0,0,1-.044.258l-4.138,9.942a.687.687,0,0,1-.635.469Zm13.015-3.414q-2.213,0-2.213-2v-4.7h-1.076a.289.289,0,0,1-.288-.291.319.319,0,0,1,.136-.258l2.06-2.016a.383.383,0,0,1,.258-.136.275.275,0,0,1,.205.089.315.315,0,0,1,.08.214v1.212h1.711a.577.577,0,0,1,.427.169.564.564,0,0,1,.166.422.583.583,0,0,1-.166.416.559.559,0,0,1-.427.177h-1.711v4.576q0,.591.283.749a1.386,1.386,0,0,0,.7.161,2.156,2.156,0,0,0,.6-.089l.128-.033a1.058,1.058,0,0,1,.177-.011.531.531,0,0,1,.377.158.51.51,0,0,1,.166.385.574.574,0,0,1-.347.53,2.926,2.926,0,0,1-1.256.275Zm6.425,0a4.069,4.069,0,0,1-2.047-.5,3.411,3.411,0,0,1-1.356-1.417,4.827,4.827,0,0,1,0-4.2,3.394,3.394,0,0,1,1.356-1.417,4.084,4.084,0,0,1,2.047-.5,4.024,4.024,0,0,1,2.027.5,3.43,3.43,0,0,1,1.364,1.417,4.753,4.753,0,0,1,0,4.2,3.413,3.413,0,0,1-1.364,1.417,4.017,4.017,0,0,1-2.027.5Zm0-1.256a2.587,2.587,0,0,0,1.19-.288,2.3,2.3,0,0,0,.937-.91,3.022,3.022,0,0,0,.372-1.578,2.988,2.988,0,0,0-.372-1.559,2.245,2.245,0,0,0-.937-.9,2.678,2.678,0,0,0-2.4,0,2.217,2.217,0,0,0-.932.9,3.015,3.015,0,0,0-.363,1.559,3.1,3.1,0,0,0,.363,1.578,2.307,2.307,0,0,0,.932.91,2.613,2.613,0,0,0,1.206.288Zm13.713,1.256A3.493,3.493,0,0,1,419.7,170.8v.394a.654.654,0,0,1-.205.485.676.676,0,0,1-.491.2.646.646,0,0,1-.482-.2.659.659,0,0,1-.2-.485v-9.834a.687.687,0,0,1,.2-.494.643.643,0,0,1,.482-.205.669.669,0,0,1,.5.2.677.677,0,0,1,.2.5v3.711a3.488,3.488,0,0,1,2.593-1.151,3.548,3.548,0,0,1,1.783.48,3.62,3.62,0,0,1,1.364,1.392,4.652,4.652,0,0,1,0,4.29,3.6,3.6,0,0,1-1.364,1.392,3.545,3.545,0,0,1-1.783.477Zm-.194-1.284a2.381,2.381,0,0,0,1.8-.713,3.313,3.313,0,0,0,0-4.035,2.383,2.383,0,0,0-1.8-.707,2.888,2.888,0,0,0-1.312.308,3.743,3.743,0,0,0-1.084.826v3.184a3.742,3.742,0,0,0,1.084.826,2.89,2.89,0,0,0,1.312.311Zm7.757,1.284a2.8,2.8,0,0,1-1.234-.275,2.126,2.126,0,0,1-.9-.8,2.165,2.165,0,0,1-.336-1.2,2.124,2.124,0,0,1,.888-1.789,4.3,4.3,0,0,1,2.6-.663H432.7V167.1a1.84,1.84,0,0,0-.491-1.436,2.257,2.257,0,0,0-1.539-.441,5.386,5.386,0,0,0-1.023.089,8.811,8.811,0,0,0-.99.275.877.877,0,0,1-.2.031.568.568,0,0,1-.563-.574.585.585,0,0,1,.394-.577,6.675,6.675,0,0,1,2.621-.544,3.389,3.389,0,0,1,1.767.427,2.64,2.64,0,0,1,1.062,1.1,3.144,3.144,0,0,1,.344,1.461V171.2a.654.654,0,0,1-.205.485.685.685,0,0,1-.491.2.672.672,0,0,1-.685-.682V170.8a3.82,3.82,0,0,1-2.851,1.148Zm.516-1.212a2.716,2.716,0,0,0,1.29-.327,3.581,3.581,0,0,0,1.043-.807v-1.273h-1.65q-2.288,0-2.291,1.2a1.127,1.127,0,0,0,.372.879,1.845,1.845,0,0,0,1.237.33Zm6.714,1.134a.646.646,0,0,1-.483-.2.659.659,0,0,1-.2-.485v-6.5a.682.682,0,0,1,.2-.5.649.649,0,0,1,.483-.2.691.691,0,0,1,.7.7v.618a5,5,0,0,1,1.24-1.012,3.151,3.151,0,0,1,1.578-.383,2.6,2.6,0,0,1,1.445.394,2.537,2.537,0,0,1,.937,1.079,3.39,3.39,0,0,1,.327,1.5v4.3a.654.654,0,0,1-.205.485.685.685,0,0,1-.491.2.667.667,0,0,1-.488-.2.659.659,0,0,1-.2-.485v-4.154q0-1.847-1.667-1.847a2.407,2.407,0,0,0-1.356.394,4.892,4.892,0,0,0-1.126,1.059v4.545a.654.654,0,0,1-.205.485.667.667,0,0,1-.494.2Zm9.232,0a.673.673,0,0,1-.685-.682v-9.834a.687.687,0,0,1,.2-.494.651.651,0,0,1,.488-.205.7.7,0,0,1,.7.7v6.2l3.605-3.333a.709.709,0,0,1,.455-.2.6.6,0,0,1,.507.2.715.715,0,0,1,.161.471.743.743,0,0,1-.258.516l-2.177,1.955,2.734,3.636a.65.65,0,0,1,.153.41.623.623,0,0,1-.2.485.717.717,0,0,1-.5.18.667.667,0,0,1-.3-.075.707.707,0,0,1-.258-.214l-2.6-3.547-1.32,1.2V171.2a.654.654,0,0,1-.205.485.682.682,0,0,1-.491.194Zm0,0" transform="translate(-319.479 -127.346)" fill="#ffb53f"/>
    </g>
    <g id="Group_590" data-name="Group 590" transform="translate(4440)">
      <path id="Path_10" data-name="Path 10" d="M53.144,8.33c-40.522.691-40.519,60.968,0,61.653,40.519-.691,40.516-60.966,0-61.653" transform="translate(-22.754 -8.33)" fill="#ffb53f"/>
      <path id="Path_11" data-name="Path 11" d="M165.931,102.213l-2.188-2.188V73.191a7.613,7.613,0,0,0-2.673-5.8,7.639,7.639,0,0,1,4.861,7.113Z" transform="translate(-122.712 -51.012)" fill="#041730"/>
      <path id="Path_12" data-name="Path 12" d="M150.711,90.992,148.526,88.8V63.5a7.62,7.62,0,0,0-2.676-5.8,7.639,7.639,0,0,1,4.861,7.113Z" transform="translate(-111.713 -44.009)" fill="#041730"/>
      <path id="Path_13" data-name="Path 13" d="M135.454,79.913l-2.166-2.2V53.854a7.69,7.69,0,0,0-2.648-5.824,7.664,7.664,0,0,1,4.814,7.141Z" transform="translate(-100.721 -37.02)" fill="#041730"/>
      <path id="Path_14" data-name="Path 14" d="M112.5,103.092V78.45l2.188,2.185V104.4a7.622,7.622,0,0,0,2.673,5.8,7.632,7.632,0,0,1-4.861-7.11Z" transform="translate(-87.612 -59.004)" fill="#041730"/>
      <path id="Path_15" data-name="Path 15" d="M97.28,89.413V63.24l2.188,2.185v25.3a7.626,7.626,0,0,0,2.673,5.8,7.633,7.633,0,0,1-4.861-7.113Z" transform="translate(-76.613 -48.012)" fill="#041730"/>
      <path id="Path_16" data-name="Path 16" d="M83.19,75.737V48.03l2.047,2.185V77.051a7.83,7.83,0,0,0,2.5,5.8,7.647,7.647,0,0,1-4.551-7.116Z" transform="translate(-66.43 -37.02)" fill="#041730"/>
    </g>
  </g>
</svg>
